<?xml version="1.0" encoding="UTF-8" standalone="no"?>
<!-- Created with Inkscape (http://www.inkscape.org/) -->

<svg
   width="19.050001mm"
   height="18.014172mm"
   viewBox="0 0 19.050001 18.014172"
   version="1.1"
   id="svg1"
   inkscape:export-filename="background.png"
   inkscape:export-xdpi="96"
   inkscape:export-ydpi="96"
   inkscape:version="1.4.2 (f4327f4, 2025-05-13)"
   sodipodi:docname="reference doc.svg"
   xmlns:inkscape="http://www.inkscape.org/namespaces/inkscape"
   xmlns:sodipodi="http://sodipodi.sourceforge.net/DTD/sodipodi-0.dtd"
   xmlns="http://www.w3.org/2000/svg"
   xmlns:svg="http://www.w3.org/2000/svg">
  <sodipodi:namedview
     id="namedview1"
     pagecolor="#ffffff"
     bordercolor="#000000"
     borderopacity="0.25"
     inkscape:showpageshadow="2"
     inkscape:pageopacity="0.0"
     inkscape:pagecheckerboard="0"
     inkscape:deskcolor="#d1d1d1"
     inkscape:document-units="mm"
     inkscape:zoom="1.0167041"
     inkscape:cx="3299.8786"
     inkscape:cy="336.87285"
     inkscape:window-width="1127"
     inkscape:window-height="607"
     inkscape:window-x="0"
     inkscape:window-y="386"
     inkscape:window-maximized="0"
     inkscape:current-layer="layer1"
     showguides="true">
    <inkscape:page
       x="2.5168847e-14"
       y="0"
       width="19.049999"
       height="18.014172"
       id="page2"
       margin="0"
       bleed="0" />
  </sodipodi:namedview>
  <defs
     id="defs1">
    <filter
       inkscape:collect="always"
       style="color-interpolation-filters:sRGB"
       id="filter29"
       x="-0.091600726"
       y="-0.097899133"
       width="1.1832015"
       height="1.1957983">
      <feGaussianBlur
         inkscape:collect="always"
         stdDeviation="0.68306474"
         id="feGaussianBlur29" />
    </filter>
  </defs>
  <g
     inkscape:label="Layer 1"
     inkscape:groupmode="layer"
     id="layer1"
     transform="translate(-873.79778,-76.277306)">
    <g
       id="g30"
       transform="matrix(0.84516453,0,0,0.84516453,138.0943,13.832229)">
      <g
         id="g29"
         style="opacity:0.551181;fill:#3e3e3e;fill-opacity:1;filter:url(#filter29)"
         inkscape:export-filename="cash.io\imports\ui\music_on.svg"
         inkscape:export-xdpi="96"
         inkscape:export-ydpi="96"
         transform="matrix(1.064439,0,0,1.064439,-56.205648,-4.8735273)">
        <path
           id="path27"
           style="fill:#3e3e3e;fill-opacity:1;stroke-width:0.264583"
           d="m 873.01118,81.150551 h 2.71657 l 6.40015,-4.779375 c 0.74219,-0.598471 0.68602,-0.566041 0.68602,0.341612 v 14.638293 c 0.0636,0.918306 -0.0657,0.677713 -0.69552,0.205181 l -6.35812,-4.769884 h -2.7491 c -0.43252,0 -0.78071,-0.348196 -0.78071,-0.780709 V 81.93126 c 0,-0.432513 0.34819,-0.780709 0.78071,-0.780709 z"
           sodipodi:nodetypes="sccccccssss" />
        <rect
           style="fill:#3e3e3e;fill-opacity:1;stroke-width:0.264583"
           id="rect27"
           width="1.1040891"
           height="6.8085499"
           x="883.73138"
           y="80.598511"
           ry="0.55204457" />
        <rect
           style="fill:#3e3e3e;fill-opacity:1;stroke-width:0.350685"
           id="rect28"
           width="1.1040891"
           height="11.960966"
           x="886.37726"
           y="78.022301"
           ry="0.55204457" />
        <rect
           style="fill:#3e3e3e;fill-opacity:1;stroke-width:0.414936"
           id="rect29"
           width="1.1040891"
           height="16.745352"
           x="889.02313"
           y="75.630104"
           ry="0.55204457" />
      </g>
      <g
         id="g12"
         style="fill:#f2f2f2"
         inkscape:export-filename="cash.io\imports\ui\music_on.svg"
         inkscape:export-xdpi="96"
         inkscape:export-ydpi="96"
         transform="matrix(1.064439,0,0,1.064439,-56.205648,-4.8735273)">
        <path
           id="rect6"
           style="fill:#f2f2f2;stroke-width:0.264583"
           d="m 873.01118,81.150551 h 2.71657 l 6.40015,-4.779375 c 0.74219,-0.598471 0.68602,-0.566041 0.68602,0.341612 v 14.638293 c 0.0636,0.918306 -0.0657,0.677713 -0.69552,0.205181 l -6.35812,-4.769884 h -2.7491 c -0.43252,0 -0.78071,-0.348196 -0.78071,-0.780709 V 81.93126 c 0,-0.432513 0.34819,-0.780709 0.78071,-0.780709 z"
           sodipodi:nodetypes="sccccccssss" />
        <rect
           style="fill:#f2f2f2;stroke-width:0.264583"
           id="rect7"
           width="1.1040891"
           height="6.8085499"
           x="883.73138"
           y="80.598511"
           ry="0.55204457" />
        <rect
           style="fill:#f2f2f2;stroke-width:0.350685"
           id="rect8"
           width="1.1040891"
           height="11.960966"
           x="886.37726"
           y="78.022301"
           ry="0.55204457" />
        <rect
           style="fill:#f2f2f2;stroke-width:0.414936"
           id="rect9"
           width="1.1040891"
           height="16.745352"
           x="889.02313"
           y="75.630104"
           ry="0.55204457" />
      </g>
    </g>
  </g>
</svg>
