<?xml version="1.0" encoding="UTF-8" standalone="no"?>
<!-- Created with Inkscape (http://www.inkscape.org/) -->

<svg
   width="37.893745mm"
   height="25.97957mm"
   viewBox="0 0 37.893745 25.97957"
   version="1.1"
   id="svg1"
   inkscape:export-filename="background.png"
   inkscape:export-xdpi="96"
   inkscape:export-ydpi="96"
   inkscape:version="1.4.2 (f4327f4, 2025-05-13)"
   sodipodi:docname="reference doc.svg"
   xmlns:inkscape="http://www.inkscape.org/namespaces/inkscape"
   xmlns:sodipodi="http://sodipodi.sourceforge.net/DTD/sodipodi-0.dtd"
   xmlns="http://www.w3.org/2000/svg"
   xmlns:svg="http://www.w3.org/2000/svg">
  <sodipodi:namedview
     id="namedview1"
     pagecolor="#ffffff"
     bordercolor="#000000"
     borderopacity="0.25"
     inkscape:showpageshadow="2"
     inkscape:pageopacity="0.0"
     inkscape:pagecheckerboard="0"
     inkscape:deskcolor="#d1d1d1"
     inkscape:document-units="mm"
     inkscape:zoom="2.8756735"
     inkscape:cx="3302.5307"
     inkscape:cy="561.4337"
     inkscape:window-width="1261"
     inkscape:window-height="607"
     inkscape:window-x="0"
     inkscape:window-y="386"
     inkscape:window-maximized="0"
     inkscape:current-layer="layer1"
     showguides="true">
    <inkscape:page
       x="0"
       y="6.9023021e-15"
       width="37.893745"
       height="25.979568"
       id="page2"
       margin="0"
       bleed="0" />
  </sodipodi:namedview>
  <defs
     id="defs1">
    <filter
       inkscape:collect="always"
       style="color-interpolation-filters:sRGB"
       id="filter25"
       x="-0.046616009"
       y="-0.05775818"
       width="1.093232"
       height="1.1155164">
      <feGaussianBlur
         inkscape:collect="always"
         stdDeviation="0.4556099"
         id="feGaussianBlur25" />
    </filter>
  </defs>
  <g
     inkscape:label="Layer 1"
     inkscape:groupmode="layer"
     id="layer1"
     transform="translate(-865.36526,-119.78554)">
    <g
       id="g26"
       transform="matrix(1.1163197,0,0,1.1163197,-97.424667,-12.92459)"
       inkscape:export-filename="cash.io\imports\ui\cash.io\imports\ui\cash.io\imports\ui\shake_on.svg"
       inkscape:export-xdpi="96"
       inkscape:export-ydpi="96">
      <g
         id="g25"
         transform="matrix(1.0062458,0,0,1.0062458,11.430804,1.8365947)"
         style="opacity:0.362205;fill:#4c4c4c;fill-opacity:1;filter:url(#filter25)">
        <g
           id="g21"
           style="opacity:1;fill:#4c4c4c;fill-opacity:1"
           transform="matrix(0.75545833,0,0,1,211.37377,2.3263409)">
          <path
             style="baseline-shift:baseline;display:inline;overflow:visible;vector-effect:none;fill:#4c4c4c;fill-opacity:1;enable-background:accumulate;stop-color:#000000;stop-opacity:1"
             d="m 862.91511,116.9839 c -6.91941,-1.87502 -8.50237,13.66017 -14.3125,12.23047 l 0.17188,0.20117 c 4.29828,2.55359 8.58389,-13.86643 14.31445,-12.23047 z"
             id="path20"
             sodipodi:nodetypes="ccccc" />
        </g>
        <rect
           style="fill:#4c4c4c;fill-opacity:1;stroke:#f2f2f2;stroke-width:0.264583"
           id="rect21"
           width="5.5950809"
           height="11.060043"
           x="847.0174"
           y="-200.89777"
           ry="0.55204457"
           transform="rotate(21.351595)" />
        <g
           id="g22"
           style="opacity:1;fill:#4c4c4c;fill-opacity:1"
           transform="matrix(0.75545833,0,0,1,209.80964,1.5902814)">
          <path
             style="baseline-shift:baseline;display:inline;overflow:visible;vector-effect:none;fill:#4c4c4c;fill-opacity:1;enable-background:accumulate;stop-color:#000000;stop-opacity:1"
             d="m 862.91511,116.9839 c -6.91941,-1.87502 -8.50237,13.66017 -14.3125,12.23047 l 0.17188,0.20117 c 4.29828,2.55359 8.58389,-13.86643 14.31445,-12.23047 z"
             id="path21"
             sodipodi:nodetypes="ccccc" />
        </g>
        <g
           id="g23"
           style="opacity:1;fill:#4c4c4c;fill-opacity:1"
           transform="matrix(0.75545833,0,0,1,220.57451,6.6506902)">
          <path
             style="baseline-shift:baseline;display:inline;overflow:visible;vector-effect:none;fill:#4c4c4c;fill-opacity:1;enable-background:accumulate;stop-color:#000000;stop-opacity:1"
             d="m 862.91511,116.9839 c -6.91941,-1.87502 -8.50237,13.66017 -14.3125,12.23047 l 0.17188,0.20117 c 4.29828,2.55359 8.58389,-13.86643 14.31445,-12.23047 z"
             id="path22"
             sodipodi:nodetypes="ccccc" />
        </g>
        <g
           id="g24"
           style="opacity:1;fill:#4c4c4c;fill-opacity:1"
           transform="matrix(0.75545833,0,0,1,222.32265,7.662772)">
          <path
             style="baseline-shift:baseline;display:inline;overflow:visible;vector-effect:none;fill:#4c4c4c;fill-opacity:1;enable-background:accumulate;stop-color:#000000;stop-opacity:1"
             d="m 862.91511,116.9839 c -6.91941,-1.87502 -8.50237,13.66017 -14.3125,12.23047 l 0.17188,0.20117 c 4.29828,2.55359 8.58389,-13.86643 14.31445,-12.23047 z"
             id="path23"
             sodipodi:nodetypes="ccccc" />
        </g>
      </g>
      <g
         id="g20"
         transform="matrix(1.0062458,0,0,1.0062458,11.430804,1.8365947)">
        <g
           id="path12"
           style="opacity:1"
           transform="matrix(0.75545833,0,0,1,211.37377,2.3263409)">
          <path
             style="baseline-shift:baseline;display:inline;overflow:visible;vector-effect:none;fill:#f2f2f2;enable-background:accumulate;stop-color:#000000;stop-opacity:1"
             d="m 862.91511,116.9839 c -6.91941,-1.87502 -8.50237,13.66017 -14.3125,12.23047 l 0.17188,0.20117 c 4.29828,2.55359 8.58389,-13.86643 14.31445,-12.23047 z"
             id="path14"
             sodipodi:nodetypes="ccccc" />
        </g>
        <rect
           style="fill:#f2f2f2;stroke:#f2f2f2;stroke-width:0.264583"
           id="rect17"
           width="5.5950809"
           height="11.060043"
           x="847.0174"
           y="-200.89777"
           ry="0.55204457"
           transform="rotate(21.351595)" />
        <g
           id="g17"
           style="opacity:1"
           transform="matrix(0.75545833,0,0,1,209.80964,1.5902814)">
          <path
             style="baseline-shift:baseline;display:inline;overflow:visible;vector-effect:none;fill:#f2f2f2;enable-background:accumulate;stop-color:#000000;stop-opacity:1"
             d="m 862.91511,116.9839 c -6.91941,-1.87502 -8.50237,13.66017 -14.3125,12.23047 l 0.17188,0.20117 c 4.29828,2.55359 8.58389,-13.86643 14.31445,-12.23047 z"
             id="path17"
             sodipodi:nodetypes="ccccc" />
        </g>
        <g
           id="g18"
           style="opacity:1"
           transform="matrix(0.75545833,0,0,1,220.57451,6.6506902)">
          <path
             style="baseline-shift:baseline;display:inline;overflow:visible;vector-effect:none;fill:#f2f2f2;enable-background:accumulate;stop-color:#000000;stop-opacity:1"
             d="m 862.91511,116.9839 c -6.91941,-1.87502 -8.50237,13.66017 -14.3125,12.23047 l 0.17188,0.20117 c 4.29828,2.55359 8.58389,-13.86643 14.31445,-12.23047 z"
             id="path18"
             sodipodi:nodetypes="ccccc" />
        </g>
        <g
           id="g19"
           style="opacity:1"
           transform="matrix(0.75545833,0,0,1,222.32265,7.662772)">
          <path
             style="baseline-shift:baseline;display:inline;overflow:visible;vector-effect:none;fill:#f2f2f2;enable-background:accumulate;stop-color:#000000;stop-opacity:1"
             d="m 862.91511,116.9839 c -6.91941,-1.87502 -8.50237,13.66017 -14.3125,12.23047 l 0.17188,0.20117 c 4.29828,2.55359 8.58389,-13.86643 14.31445,-12.23047 z"
             id="path19"
             sodipodi:nodetypes="ccccc" />
        </g>
      </g>
    </g>
  </g>
</svg>
